<?xml version="1.0" encoding="UTF-8"?>
<svg version="1.1" xmlns="http://www.w3.org/2000/svg" width="512" height="512">
<path d="M0 0 C1.41952217 -0.01058945 1.41952217 -0.01058945 2.86772156 -0.02139282 C42.38370862 -0.24928599 42.38370862 -0.24928599 58.8671875 3.203125 C59.84204102 3.40180176 60.81689453 3.60047852 61.82128906 3.80517578 C94.47318583 10.63536729 124.4275588 22.85207881 152.8671875 40.203125 C153.47304688 39.80480469 154.07890625 39.40648437 154.703125 38.99609375 C167.68973678 30.78455923 181.53028768 28.51180118 196.6171875 31.265625 C212.16766629 34.89970428 225.34168283 43.59805318 233.8671875 57.203125 C241.90949301 70.73717628 244.12032831 86.09062751 240.7421875 101.453125 C238.94343331 107.76606037 235.99318823 113.45652486 232.8671875 119.203125 C232.5371875 119.863125 232.2071875 120.523125 231.8671875 121.203125 C232.70455441 123.19716337 232.70455441 123.19716337 234.04296875 125.40234375 C234.78317261 126.70365234 234.78317261 126.70365234 235.53833008 128.03125 C236.07997803 128.97484375 236.62162598 129.9184375 237.1796875 130.890625 C251.12332414 155.87630856 260.44418615 182.13081847 265.8671875 210.203125 C266.03234863 211.01539551 266.19750977 211.82766602 266.36767578 212.66455078 C271.84716914 240.7193301 271.61359697 274.21971139 265.8671875 302.203125 C265.56917236 303.72196289 265.56917236 303.72196289 265.26513672 305.27148438 C257.04783955 346.36412549 239.60701553 383.29948917 213.8671875 416.203125 C213.44808105 416.74227539 213.02897461 417.28142578 212.59716797 417.83691406 C199.83043259 434.08171661 184.636932 449.13231908 167.8671875 461.203125 C166.72053878 462.05489301 165.57472025 462.90777963 164.4296875 463.76171875 C156.23808548 469.80915633 147.72815352 475.19410912 138.8671875 480.203125 C138.15997559 480.6053125 137.45276367 481.0075 136.72412109 481.421875 C110.5717286 496.14589628 81.55773981 505.83089472 51.8671875 510.203125 C50.68938721 510.37972656 49.51158691 510.55632812 48.2980957 510.73828125 C35.86465488 512.46940203 23.46633105 512.6018111 10.9296875 512.578125 C9.30453217 512.57730927 9.30453217 512.57730927 7.64654541 512.57647705 C-8.62033252 512.53893972 -24.22935492 511.91458635 -40.1328125 508.203125 C-41.1120166 507.98350098 -42.0912207 507.76387695 -43.10009766 507.53759766 C-88.9668378 497.06245561 -130.38688736 473.83101838 -164.1328125 441.203125 C-164.78604492 440.57180664 -165.43927734 439.94048828 -166.11230469 439.29003906 C-174.30241257 431.33118128 -182.2613074 423.35326392 -189.1328125 414.203125 C-189.61282715 413.56713379 -190.0928418 412.93114258 -190.58740234 412.27587891 C-202.43491655 396.49497541 -212.76593527 380.08438853 -221.1328125 362.203125 C-221.42607422 361.58856445 -221.71933594 360.97400391 -222.02148438 360.34082031 C-231.38304737 340.60647872 -237.52951857 319.71809092 -241.1328125 298.203125 C-241.31900146 297.14496582 -241.50519043 296.08680664 -241.69702148 294.99658203 C-243.39567157 284.14304638 -243.47114483 273.36493658 -243.44848633 262.39990234 C-243.44534543 259.23629628 -243.46879924 256.07364624 -243.49414062 252.91015625 C-243.69525915 188.27191988 -217.89086022 125.67395473 -173.1328125 79.203125 C-172.50068848 78.54376953 -171.86856445 77.88441406 -171.21728516 77.20507812 C-162.07041197 67.714305 -152.76835556 58.98991724 -142.1328125 51.203125 C-141.04001136 50.38067746 -139.94756284 49.55776118 -138.85546875 48.734375 C-103.79718419 22.65468317 -62.37769588 6.753574 -19.1328125 1.203125 C-18.13200401 1.07213158 -18.13200401 1.07213158 -17.11097717 0.93849182 C-11.39460774 0.24225009 -5.75538618 0.02856336 0 0 Z " fill="#EEF5FE" transform="translate(243.1328125,-0.203125)"/>
<path d="M0 0 C0.76795898 0.32629395 1.53591797 0.65258789 2.32714844 0.98876953 C13.66254351 5.90016291 24.05454601 11.67192927 34 19 C34.91523438 19.67160156 35.83046875 20.34320313 36.7734375 21.03515625 C55.97740056 36.00040674 70.99436151 54.37452954 82 76 C82.52787109 77.03350586 82.52787109 77.03350586 83.06640625 78.08789062 C91.95135557 95.84139636 96.93356035 115.18643994 98 135 C98.04382813 135.71978027 98.08765625 136.43956055 98.1328125 137.18115234 C99.19343713 157.1429917 96.27688094 178.3486666 89 197 C88.71108887 197.7518457 88.42217773 198.50369141 88.12451172 199.27832031 C80.32960199 219.30157053 69.86909383 236.33850932 55 252 C54.53110352 252.50144531 54.06220703 253.00289063 53.57910156 253.51953125 C29.19149003 279.4698441 -6.73878014 298.74932757 -42.75195312 300.22949219 C-48.06368606 300.39384823 -53.3734627 300.43792398 -58.6875 300.4375 C-59.54826141 300.43799347 -60.40902283 300.43848694 -61.29586792 300.43899536 C-75.7567437 300.39878839 -89.02129134 298.95946548 -102.875 294.5625 C-103.8546875 294.26279297 -104.834375 293.96308594 -105.84375 293.65429688 C-109.97637261 292.37051047 -113.97126455 291.07341016 -117.8828125 289.21484375 C-121.29373628 287.88552383 -122.6107503 287.74324801 -126 289 C-128.18048291 290.24682961 -128.18048291 290.24682961 -130.25 291.8125 C-143.21035676 300.79834735 -158.74225846 302.24150274 -174.16601562 299.63378906 C-186.46249248 296.51097736 -197.76449926 287.18682341 -205 277 C-213.1341321 262.68195835 -215.40763487 247.71231211 -212.31640625 231.390625 C-211.39851627 228.75502391 -210.36045329 226.43471367 -209 224 C-208.4946875 223.08863281 -207.989375 222.17726563 -207.46875 221.23828125 C-205.43178691 217.73849909 -203.24580713 214.3687107 -201 211 C-201.35923719 206.1256444 -203.09384903 201.77897043 -204.8125 197.25 C-207.08169247 191.05564404 -208.9009329 184.88228511 -210.3125 178.4375 C-210.47145752 177.71272461 -210.63041504 176.98794922 -210.79418945 176.24121094 C-212.79167238 166.70512422 -213.1863576 157.4125629 -213.18530273 147.6940918 C-213.18747119 145.46708525 -213.20562225 143.24058999 -213.22460938 141.01367188 C-213.27791655 127.94280632 -212.10556437 115.2835075 -208.375 102.6875 C-207.98803955 101.36383423 -207.98803955 101.36383423 -207.59326172 100.01342773 C-200.44475242 76.48239078 -187.89307816 55.82419271 -171 38 C-170.54705566 37.50918945 -170.09411133 37.01837891 -169.62744141 36.51269531 C-127.98844419 -8.44565688 -56.66152321 -24.09996532 0 0 Z " fill="#FEFEFE" transform="translate(314,111)"/>
<path d="M0 0 C1.41952217 -0.01058945 1.41952217 -0.01058945 2.86772156 -0.02139282 C42.38370862 -0.24928599 42.38370862 -0.24928599 58.8671875 3.203125 C59.84204102 3.40180176 60.81689453 3.60047852 61.82128906 3.80517578 C94.47318583 10.63536729 124.4275588 22.85207881 152.8671875 40.203125 C153.47304688 39.80480469 154.07890625 39.40648437 154.703125 38.99609375 C167.68973678 30.78455923 181.53028768 28.51180118 196.6171875 31.265625 C212.16766629 34.89970428 225.34168283 43.59805318 233.8671875 57.203125 C241.90949301 70.73717628 244.12032831 86.09062751 240.7421875 101.453125 C238.94343331 107.76606037 235.99318823 113.45652486 232.8671875 119.203125 C232.5371875 119.863125 232.2071875 120.523125 231.8671875 121.203125 C232.70455441 123.19716337 232.70455441 123.19716337 234.04296875 125.40234375 C234.78317261 126.70365234 234.78317261 126.70365234 235.53833008 128.03125 C236.07997803 128.97484375 236.62162598 129.9184375 237.1796875 130.890625 C251.12332414 155.87630856 260.44418615 182.13081847 265.8671875 210.203125 C266.03234863 211.01539551 266.19750977 211.82766602 266.36767578 212.66455078 C271.84716914 240.7193301 271.61359697 274.21971139 265.8671875 302.203125 C265.56917236 303.72196289 265.56917236 303.72196289 265.26513672 305.27148438 C257.04783955 346.36412549 239.60701553 383.29948917 213.8671875 416.203125 C213.44808105 416.74227539 213.02897461 417.28142578 212.59716797 417.83691406 C199.83043259 434.08171661 184.636932 449.13231908 167.8671875 461.203125 C166.72053878 462.05489301 165.57472025 462.90777963 164.4296875 463.76171875 C156.23808548 469.80915633 147.72815352 475.19410912 138.8671875 480.203125 C138.15997559 480.6053125 137.45276367 481.0075 136.72412109 481.421875 C110.5717286 496.14589628 81.55773981 505.83089472 51.8671875 510.203125 C50.68938721 510.37972656 49.51158691 510.55632812 48.2980957 510.73828125 C35.86465488 512.46940203 23.46633105 512.6018111 10.9296875 512.578125 C9.30453217 512.57730927 9.30453217 512.57730927 7.64654541 512.57647705 C-8.62033252 512.53893972 -24.22935492 511.91458635 -40.1328125 508.203125 C-41.1120166 507.98350098 -42.0912207 507.76387695 -43.10009766 507.53759766 C-88.9668378 497.06245561 -130.38688736 473.83101838 -164.1328125 441.203125 C-164.78604492 440.57180664 -165.43927734 439.94048828 -166.11230469 439.29003906 C-174.30241257 431.33118128 -182.2613074 423.35326392 -189.1328125 414.203125 C-189.61282715 413.56713379 -190.0928418 412.93114258 -190.58740234 412.27587891 C-202.43491655 396.49497541 -212.76593527 380.08438853 -221.1328125 362.203125 C-221.42607422 361.58856445 -221.71933594 360.97400391 -222.02148438 360.34082031 C-231.38304737 340.60647872 -237.52951857 319.71809092 -241.1328125 298.203125 C-241.31900146 297.14496582 -241.50519043 296.08680664 -241.69702148 294.99658203 C-243.39567157 284.14304638 -243.47114483 273.36493658 -243.44848633 262.39990234 C-243.44534543 259.23629628 -243.46879924 256.07364624 -243.49414062 252.91015625 C-243.69525915 188.27191988 -217.89086022 125.67395473 -173.1328125 79.203125 C-172.50068848 78.54376953 -171.86856445 77.88441406 -171.21728516 77.20507812 C-162.07041197 67.714305 -152.76835556 58.98991724 -142.1328125 51.203125 C-141.04001136 50.38067746 -139.94756284 49.55776118 -138.85546875 48.734375 C-103.79718419 22.65468317 -62.37769588 6.753574 -19.1328125 1.203125 C-18.13200401 1.07213158 -18.13200401 1.07213158 -17.11097717 0.93849182 C-11.39460774 0.24225009 -5.75538618 0.02856336 0 0 Z M-89.35400391 54.25048828 C-91.08708034 55.17863325 -92.83443863 56.07995387 -94.58203125 56.98046875 C-121.43047817 70.99249845 -146.78996309 92.00160629 -165.1328125 116.203125 C-165.62104492 116.8420166 -166.10927734 117.4809082 -166.61230469 118.13916016 C-174.34507746 128.31868565 -181.10854711 138.72842895 -187.01708984 150.06542969 C-188.07532395 152.09297844 -189.15848556 154.10529098 -190.24609375 156.1171875 C-215.17321916 203.06875986 -220.97037335 263.8517932 -206.34960938 314.98779297 C-205.38198265 318.09904819 -204.26247942 321.14752164 -203.1328125 324.203125 C-202.62403013 325.68151173 -202.11764848 327.16072618 -201.61328125 328.640625 C-193.04466058 353.33600017 -180.76606983 376.00784586 -164.1328125 396.203125 C-163.68502441 396.75242676 -163.23723633 397.30172852 -162.77587891 397.86767578 C-151.86164195 411.18706611 -139.90285753 423.8093041 -126.1328125 434.203125 C-125.50068848 434.68458984 -124.86856445 435.16605469 -124.21728516 435.66210938 C-98.79961871 454.91630254 -70.63748621 469.39953767 -39.5703125 476.953125 C-38.42296631 477.2330127 -38.42296631 477.2330127 -37.25244141 477.51855469 C-34.55439275 478.13686907 -31.85135007 478.68132992 -29.1328125 479.203125 C-28.14406631 479.3931459 -28.14406631 479.3931459 -27.13534546 479.58700562 C-15.71366533 481.72760885 -4.64080192 482.6583832 6.97436523 482.53930664 C9.43311331 482.51559196 11.89077439 482.51879988 14.34960938 482.52539062 C30.21225674 482.49963877 45.55805794 480.83542918 61.0546875 477.390625 C62.26519775 477.12419189 63.47570801 476.85775879 64.72290039 476.58325195 C91.99389769 470.43842453 119.13488989 458.59754163 141.8671875 442.203125 C142.82496094 441.51863281 143.78273438 440.83414062 144.76953125 440.12890625 C161.64565884 427.77673402 176.99919625 413.71782135 189.8671875 397.203125 C191.03121094 395.78193359 191.03121094 395.78193359 192.21875 394.33203125 C229.02251169 348.47337581 243.80448194 288.25002978 238.09814453 230.30493164 C234.79490356 202.10050992 226.36007148 175.18051819 212.8671875 150.203125 C212.26261719 149.07519531 211.65804688 147.94726562 211.03515625 146.78515625 C209.66217253 144.24819101 208.27532 141.72069522 206.8671875 139.203125 C206.22136719 139.4196875 205.57554687 139.63625 204.91015625 139.859375 C189.92410637 144.28753748 174.33970557 143.73752155 160.203125 136.91796875 C146.14806878 129.10718673 136.22891133 117.28773046 131.55859375 101.89453125 C130.23384853 96.73775466 129.64315884 91.90668437 129.6171875 86.578125 C129.61323975 85.87461914 129.60929199 85.17111328 129.60522461 84.44628906 C129.66404102 79.12734507 130.54632219 74.48151281 132.30859375 69.4375 C132.9558732 66.84838219 132.78698675 65.68794677 131.8671875 63.203125 C129.30086043 61.44257598 126.85234131 59.96753892 124.1171875 58.515625 C123.31224854 58.08137207 122.50730957 57.64711914 121.67797852 57.19970703 C98.20616622 44.78393237 73.10425483 36.25915015 46.8671875 32.203125 C45.57296875 31.97882812 44.27875 31.75453125 42.9453125 31.5234375 C-1.4488487 24.90961348 -49.8969232 33.06116052 -89.35400391 54.25048828 Z " fill="#2680ED" transform="translate(243.1328125,-0.203125)"/>
<path d="M0 0 C0.76795898 0.32629395 1.53591797 0.65258789 2.32714844 0.98876953 C13.66254351 5.90016291 24.05454601 11.67192927 34 19 C34.91523438 19.67160156 35.83046875 20.34320313 36.7734375 21.03515625 C55.97740056 36.00040674 70.99436151 54.37452954 82 76 C82.52787109 77.03350586 82.52787109 77.03350586 83.06640625 78.08789062 C91.95135557 95.84139636 96.93356035 115.18643994 98 135 C98.04382813 135.71978027 98.08765625 136.43956055 98.1328125 137.18115234 C99.19343713 157.1429917 96.27688094 178.3486666 89 197 C88.71108887 197.7518457 88.42217773 198.50369141 88.12451172 199.27832031 C80.32960199 219.30157053 69.86909383 236.33850932 55 252 C54.53110352 252.50144531 54.06220703 253.00289063 53.57910156 253.51953125 C29.19149003 279.4698441 -6.73878014 298.74932757 -42.75195312 300.22949219 C-48.06368606 300.39384823 -53.3734627 300.43792398 -58.6875 300.4375 C-59.54826141 300.43799347 -60.40902283 300.43848694 -61.29586792 300.43899536 C-75.7567437 300.39878839 -89.02129134 298.95946548 -102.875 294.5625 C-103.8546875 294.26279297 -104.834375 293.96308594 -105.84375 293.65429688 C-109.97637261 292.37051047 -113.97126455 291.07341016 -117.8828125 289.21484375 C-121.29373628 287.88552383 -122.6107503 287.74324801 -126 289 C-128.18048291 290.24682961 -128.18048291 290.24682961 -130.25 291.8125 C-143.21035676 300.79834735 -158.74225846 302.24150274 -174.16601562 299.63378906 C-186.46249248 296.51097736 -197.76449926 287.18682341 -205 277 C-213.1341321 262.68195835 -215.40763487 247.71231211 -212.31640625 231.390625 C-211.39851627 228.75502391 -210.36045329 226.43471367 -209 224 C-208.4946875 223.08863281 -207.989375 222.17726563 -207.46875 221.23828125 C-205.43178691 217.73849909 -203.24580713 214.3687107 -201 211 C-201.35923719 206.1256444 -203.09384903 201.77897043 -204.8125 197.25 C-207.08169247 191.05564404 -208.9009329 184.88228511 -210.3125 178.4375 C-210.47145752 177.71272461 -210.63041504 176.98794922 -210.79418945 176.24121094 C-212.79167238 166.70512422 -213.1863576 157.4125629 -213.18530273 147.6940918 C-213.18747119 145.46708525 -213.20562225 143.24058999 -213.22460938 141.01367188 C-213.27791655 127.94280632 -212.10556437 115.2835075 -208.375 102.6875 C-207.98803955 101.36383423 -207.98803955 101.36383423 -207.59326172 100.01342773 C-200.44475242 76.48239078 -187.89307816 55.82419271 -171 38 C-170.54705566 37.50918945 -170.09411133 37.01837891 -169.62744141 36.51269531 C-127.98844419 -8.44565688 -56.66152321 -24.09996532 0 0 Z M-152.56640625 61.36376953 C-173.02329704 84.71221676 -183.15703083 112.95814498 -183.24023438 143.87866211 C-183.24987007 146.0334439 -183.28093502 148.18724066 -183.3125 150.34179688 C-183.41109701 163.0546204 -181.66794485 175.08062357 -176.8125 186.9375 C-176.53986328 187.63294922 -176.26722656 188.32839844 -175.98632812 189.04492188 C-175.33531103 190.701018 -174.6694573 192.35127184 -174 194 C-172.98164063 193.84144531 -171.96328125 193.68289063 -170.9140625 193.51953125 C-156.29797914 191.57947228 -142.54401539 193.99708109 -130 202 C-118.50867576 210.87808635 -109.41793032 222.33047582 -106.2734375 236.77734375 C-105.28176554 244.83822015 -105.91329405 252.9855436 -107 261 C-94.47462064 266.42574037 -81.84811838 270.05917005 -68.14453125 270.2734375 C-67.40915634 270.28596558 -66.67378143 270.29849365 -65.91612244 270.31140137 C-49.94799156 270.53092781 -35.21783126 270.40520139 -20 265 C-18.60462567 264.54805952 -17.20879462 264.09752664 -15.8125 263.6484375 C14.23204813 253.57038415 39.68336631 230.94266576 54.21484375 202.88720703 C64.52934078 181.99607068 69.55469184 159.32591027 68 136 C67.95601074 135.33097656 67.91202148 134.66195312 67.86669922 133.97265625 C65.25029817 99.44625787 47.54615425 70.02344228 21.9921875 47.4375 C-30.49545078 4.6799461 -107.15361681 11.62815021 -152.56640625 61.36376953 Z " fill="#140273" transform="translate(314,111)"/>
<path d="M0 0 C1.00289063 0.33 2.00578125 0.66 3.0390625 1 C21.08130504 7.4225313 34.18970183 18.920935 43 36 C44.59944221 39.60948749 45.8881546 43.21387381 47 47 C47.22429687 47.69996094 47.44859375 48.39992187 47.6796875 49.12109375 C52.36967225 66.11425768 47.5669706 83.75621083 39.47265625 98.84765625 C29.780553 115.06197486 15.04327693 124.9452452 -3 130 C-6.03103002 130.65403868 -8.90347062 130.92726273 -12 131 C-12.99515625 131.03867187 -13.9903125 131.07734375 -15.015625 131.1171875 C-35.13676107 131.54631126 -51.72816646 124.89528559 -66.375 111.125 C-80.95396829 95.565933 -84.64213217 77.63662014 -84.33203125 57.0390625 C-83.69857954 40.23564808 -74.61925009 25.52683846 -62.60546875 14.18359375 C-45.89340856 0.17753431 -21.33482315 -7.18646675 0 0 Z " fill="#A6CCF4" transform="translate(274,191)"/>
<path d="M0 0 C9.67626318 6.64202387 14.39913953 15.36894312 16.79296875 26.71484375 C18.342058 36.56832897 14.28095802 46.77953807 8.5390625 54.68359375 C1.544583 62.82034843 -7.10644429 66.95210074 -17.734375 68.09375 C-29.25735679 68.48160281 -37.16956085 65.38871818 -45.94140625 57.99609375 C-53.49750827 50.38788068 -56.60617702 41.42770563 -56.58203125 30.90234375 C-56.55580834 24.04160272 -56.11729873 18.55595759 -52.20703125 12.71484375 C-51.77132812 12.02261719 -51.335625 11.33039063 -50.88671875 10.6171875 C-39.19809132 -6.46864767 -17.71944492 -10.31804846 0 0 Z " fill="#FEFEFE" transform="translate(276.20703125,224.28515625)"/>
<path d="M0 0 C7.89520509 3.62461688 12.72462963 9.16606921 16.078125 17.12109375 C17.24857323 25.79511322 17.16426463 33.72211511 11.921875 41.06640625 C6.61341918 46.9821854 0.96436878 50.59973275 -7.0703125 51.45703125 C-16.33925773 51.56924608 -21.80896499 50.15944038 -28.671875 43.93359375 C-33.82955533 38.36282689 -36.1147899 32.76981426 -36.484375 25.18359375 C-36.19931637 17.95597812 -33.91999929 12.38393948 -29.01953125 7.05078125 C-20.54684729 -0.72262169 -11.29402989 -3.39726835 0 0 Z " fill="#F9FCFE" transform="translate(437.921875,61.87890625)"/>
<path d="M0 0 C5.71257945 3.28939316 11.08275516 8.9129346 13.47265625 15.109375 C14.29240344 22.59927568 14.82128178 30.23644548 10.03125 36.46484375 C5.03838438 41.73300522 0.70432742 45.62385717 -6.76171875 46.48046875 C-14.4615077 46.62590921 -20.59202199 46.4000819 -26.52734375 41.109375 C-32.46518192 33.92610044 -34.02717166 28.03739768 -33.921875 18.76171875 C-33.19315033 12.01560427 -30.33566038 7.71373567 -25.4296875 3.1640625 C-18.07800597 -2.11343843 -8.53218041 -3.00670345 0 0 Z " fill="#FDFDFD" transform="translate(164.52734375,334.890625)"/>
</svg>
